<svg id="Layer_1" data-name="Layer 1" xmlns="http://www.w3.org/2000/svg" viewBox="0 0 500 500"><defs><style>.cls-1{fill:#007acc;}.cls-2{fill:#fff;}</style></defs><path class="cls-1" d="M250,500V683.6A66.4,66.4,0,0,0,316.4,750H683.6A66.4,66.4,0,0,0,750,683.6V316.4A66.4,66.4,0,0,0,683.6,250H316.4A66.4,66.4,0,0,0,250,316.4Z" transform="translate(-250 -250)"/><path class="cls-2" d="M360.57,501.66l-.16,20.47h65.08V707.06h46V522.13H536.6V502.06c0-11.12-.24-20.4-.56-20.64s-39.84-.48-87.85-.4l-87.38.24Z" transform="translate(-250 -250)"/><path class="cls-2" d="M653.45,480.68a62.18,62.18,0,0,1,31.27,18c4.6,4.92,11.43,13.89,12,16,.16.63-21.58,15.24-34.76,23.41-.47.32-2.38-1.75-4.52-4.92-6.43-9.37-13.18-13.41-23.49-14.13-15.16-1-24.92,6.91-24.84,20.16a18.33,18.33,0,0,0,2.14,9.37c3.33,6.9,9.52,11,29,19.44,35.79,15.4,51.11,25.56,60.63,40,10.64,16.11,13,41.83,5.8,61-7.94,20.8-27.62,34.92-55.32,39.61-8.57,1.5-28.89,1.27-38.1-.4-20.08-3.57-39.12-13.49-50.87-26.51-4.6-5.08-13.57-18.33-13-19.28a37.6,37.6,0,0,1,4.61-2.94c2.22-1.27,10.63-6.11,18.57-10.71l14.36-8.34,3,4.45c4.21,6.43,13.41,15.23,19,18.17,15.95,8.41,37.85,7.22,48.65-2.46,4.6-4.21,6.51-8.57,6.51-15,0-5.79-.72-8.33-3.73-12.7-3.89-5.55-11.83-10.24-34.37-20-25.79-11.11-36.9-18-47.06-29a65.69,65.69,0,0,1-13.73-25c-1.91-7.06-2.38-24.76-.88-31.9,5.32-24.92,24.13-42.3,51.27-47.46C624.32,477.9,644.8,478.54,653.45,480.68Z" transform="translate(-250 -250)"/></svg>